<?xml version="1.0" encoding="utf-8"?>
<!-- Generator: Adobe Illustrator 15.1.0, SVG Export Plug-In . SVG Version: 6.00 Build 0)  -->
<!DOCTYPE svg PUBLIC "-//W3C//DTD SVG 1.1//EN" "http://www.w3.org/Graphics/SVG/1.1/DTD/svg11.dtd">
<svg version="1.1" id="Layer_1" xmlns="http://www.w3.org/2000/svg" xmlns:xlink="http://www.w3.org/1999/xlink" x="0px" y="0px"
	 width="497.976px" height="406.979px" viewBox="0 0 497.976 406.979" enable-background="new 0 0 497.976 406.979"
	 xml:space="preserve">
<g>
	<path fill="#ffffff" stroke="#dadada" d="M347.402,406.979c0,0-34.291,0-40.918,0H201.491c-6.628,0-54.089-0.58-54.089-0.58s49.5-22.5,50.077-70.416
		c0.097-8.029-2.616-11.584,4.012-11.584h101.911l-2,11.584C301.902,385.983,347.402,406.979,347.402,406.979z"/>
	<path fill="#ffffff" stroke="#dadada" d="M485.976,0H12C5.373,0,0,5.373,0,12v311.983c0,6.627,5.373,12,12,12h473.976c6.628,0,12-5.373,12-12V12
		C497.976,5.373,492.604,0,485.976,0z M483.977,289.478c0,4.098-5.527,7.422-12.343,7.422H28.342
		c-6.817,0-12.343-3.324-12.343-7.422V22.921c0-4.099,5.526-7.421,12.343-7.421h443.292c6.815,0,12.343,3.323,12.343,7.421V289.478z
		"/>
	<circle fill="#ffffff" stroke="#dadada" cx="251.402" cy="318.399" r="7"/>
</g>
</svg>
