<?xml version="1.0" encoding="utf-8"?>
<!-- Generator: Adobe Illustrator 15.1.0, SVG Export Plug-In . SVG Version: 6.00 Build 0)  -->
<!DOCTYPE svg PUBLIC "-//W3C//DTD SVG 1.1//EN" "http://www.w3.org/Graphics/SVG/1.1/DTD/svg11.dtd">
<svg version="1.1" id="Layer_1" xmlns="http://www.w3.org/2000/svg" xmlns:xlink="http://www.w3.org/1999/xlink" x="0px" y="0px"
	 width="74.916px" height="138.419px" viewBox="0 0 74.916 138.419" enable-background="new 0 0 74.916 138.419"
	 xml:space="preserve">
<g>
	<path fill="#ffffff" stroke="#dadada" d="M60.416,0H14.5C6.492,0,0,5.579,0,12.463v113.493c0,6.883,6.492,12.463,14.5,12.463h45.916
		c8.008,0,14.5-5.58,14.5-12.463V12.463C74.916,5.579,68.424,0,60.416,0z M69.582,124.239h-64V9.333h64V124.239z"/>
	<path fill="#ffffff" stroke="#dadada" d="M33.698,130.322c0-2.146,1.737-3.884,3.884-3.884l0,0c2.147,0,3.884,1.737,3.884,3.884l0,0
		c0,2.148-1.736,3.884-3.884,3.884l0,0C35.436,134.206,33.698,132.471,33.698,130.322L33.698,130.322z"/>
</g>
</svg>
