<?xml version="1.0" encoding="utf-8"?>
<!-- Generator: Adobe Illustrator 15.1.0, SVG Export Plug-In . SVG Version: 6.00 Build 0)  -->
<!DOCTYPE svg PUBLIC "-//W3C//DTD SVG 1.1//EN" "http://www.w3.org/Graphics/SVG/1.1/DTD/svg11.dtd">
<svg version="1.1" id="Layer_1" xmlns="http://www.w3.org/2000/svg" xmlns:xlink="http://www.w3.org/1999/xlink" x="0px" y="0px"
	 width="160.668px" height="236px" viewBox="37.666 -37.666 160.668 236" enable-background="new 37.666 -37.666 160.668 236"
	 xml:space="preserve">
<g>
	<path fill="#ffffff" stroke="#dadada" d="M37.666-25.666v212c0,6.627,5.373,12,12,12h136.668c6.627,0,12-5.373,12-12v-212c0-6.627-5.373-12-12-12H49.666
		C43.039-37.666,37.666-32.293,37.666-25.666z M174.334-23.666c6.627,0,12,5.146,12,11.493v181.014c0,6.347-5.373,11.493-12,11.493
		H61.666c-6.627,0-12-5.146-12-11.493V-12.173c0-6.347,5.373-11.493,12-11.493H174.334z"/>
	<circle fill="#ffffff" stroke="#dadada" cx="118" cy="189.334" r="4.409"/>
</g>
</svg>
