<?xml version="1.0" encoding="utf-8"?>
<!-- Generator: Adobe Illustrator 15.1.0, SVG Export Plug-In . SVG Version: 6.00 Build 0)  -->
<!DOCTYPE svg PUBLIC "-//W3C//DTD SVG 1.1//EN" "http://www.w3.org/Graphics/SVG/1.1/DTD/svg11.dtd">
<svg version="1.1" xmlns="http://www.w3.org/2000/svg" xmlns:xlink="http://www.w3.org/1999/xlink" x="0px" y="0px" width="1200px"
	 height="1200px" viewBox="0 0 1200 1200" enable-background="new 0 0 1200 1200" xml:space="preserve">
<g id="background_copy">
	<circle fill="#E4C6C7" cx="600" cy="600" r="600"/>
</g>
<g id="epaules">
	<path fill="#4777BB" d="M492.578,795.853c0,0-326.331,96.147-374.127,156.147s-30.59,276-30.59,276H1126c0,0,26-175,0-254
		s-30.59-102.904-99.417-133.452C957.757,810,775.441,817.5,721.642,778s-218.907,8-218.907,8"/>
	<path fill="#FEDECC" d="M368,828c-25.512,67.344-36,200-23,262s3,131,0,148s523,0,523,0s-107.91-421-78.955-468
		S378.612,799.986,368,828z"/>
</g>
<g id="cou">
	<path fill="#D2825F" d="M399.616,834.82c0,0-19.616,189.18,24.384,245.18s226,156,324,12s27.395-352,27.395-352h-74.076L474,778
		L399.616,834.82z"/>
</g>
<g id="let_hair">
	<path fill="#711313" d="M434.778,222.473c-63.319,6.131-127.404,40.629-120.284,189.122C316.275,503.09,288,486.717,288,576.758
		C348.667,686,263.022,776.077,325.251,825.574S474,786,474,786V222.473H434.778z"/>
</g>
<g id="face">
	<path fill="#EC9572" d="M463,232c-46.87,16.162-66,72-71,155s-19,141-6,195s15,50,15,85s35,91,73,119s55,74,113,73s87-54,116-81
		c0,0,62-49,78-127c5-39,2-87,8-135c1-29-15-70-18-137s-57-138-86-147s-82-15-111,0S521,212,463,232z"/>
</g>
<g id="sourcils">
	<path fill="#914940" d="M448,397.333c23.413,0.541,67.299,20,77.316,20.667s11.351,22.667-29.983,8s-59-8.667-59-8.667
		s-29.104,10.826-40.77,25.982C398.667,422,439.137,397.129,448,397.333z"/>
	<path fill="#914940" d="M712.401,389.109c-24.986,4.312-69.074,30.634-79.7,32.91c-10.625,2.275-8.774,24.245,33.295,3.073
		c42.067-21.171,61.876-18.088,61.876-18.088s32.774,6.01,47.522,19.115C768.896,405.542,721.86,387.478,712.401,389.109z"/>
</g>
<g id="levres">
	<path fill="#D35F6D" d="M592.854,668.5C613.5,665,631.5,664,676,671c15,3,15,3,15,3c0,17.5-44.28,64.5-44.28,64.5
		s-25.013,22-53.866,22S537.5,746,522.5,731.5S490,681.581,490,681.581c14-2.081,31-14.997,60.5-15.789S592.854,668.5,592.854,668.5
		z"/>
</g>
<g id="fond_x5F_bouche">
	<path fill="#6F1625" d="M490.175,681.554c3.024,13.16,45.983,46.946,100.079,46.946S687.321,681.344,691,674
		c-10.292-1.433-53.225,17.042-100.264,18C541.8,692.997,497.28,681.021,490.175,681.554z"/>
</g>
<g id="dents">
	<path fill="#FFFFFF" d="M514.667,686c0,0,0.333,17.668,4.333,19.334c4-2,6.667-2.667,6.667-2.667s6,10.667,8.667,11.667
		s6.667-2.333,9.667-3c0,0,1.333,5,5.333,6.333S555.333,719,560,716c0.333,0.334,2.333,6.668,8.667,8.334s17.667,4.334,22.333,0
		c5,3.333,25-1,25-1s3.333-1.334,5-8.334c0,0,12.999,7.352,18.333-8.657c0,0,5,12.991,11.667-4.009c0,0,3.999,4.332,8.333-16.334
		c0,0-2.666,3.001-4.666,2.334S641.999,689,639.333,695c-1.666-5.666-16-1.666-18,4.667c-0.333-4.667-9.667-8.333-16-7.333
		s-12.666,6.667-14,12c-1.667-4.334-8.667-11-18-10s-11.667,5-12.667,10c-1-5.667-14-17.334-18.333-7.667c-0.333-4-16-8.667-17-4
		C524,688.667,514.667,686,514.667,686z"/>
</g>
<g id="lunettes">
	<g>
		<path fill="#885932" d="M371.333,480.667c1.689-6.757,2.429-20.646,23.905-27.612c-0.042-3.225-0.101-6.443-0.164-9.659
			C368.531,448.041,348.667,454,348.667,454v32c16,2.667,18,24.667,26,46.667c5.061,13.917,9.858,24.628,17.76,32.479
			c0.286-4.519,0.557-9.043,0.802-13.579C379.603,530.282,369.431,488.279,371.333,480.667z"/>
		<path fill="#451D1C" d="M450.667,438c-18.967,0-38.641,2.43-55.592,5.396c0.063,3.216,0.122,6.434,0.164,9.659
			c3.952-1.282,8.604-2.33,14.095-3.055c35.333-4.667,52-4,52-4c26.667,1.333,76.404,7.775,94.667,22
			c15.333,8.667-2,56.667-6.667,67.333s-14,36-54.667,37.333s-84.667,2-99.333-18c-0.71-0.969-1.411-2.016-2.104-3.1
			c-0.245,4.536-0.516,9.06-0.802,13.579c4.59,4.561,10.224,8.159,17.573,10.854c20,7.333,101.333,11.333,128-10.667
			s31.49-71.057,35.333-80.667c3-7.5,12.667-6.101,12.667-6.101v-21.233C559.333,458,500.667,434,450.667,438z"/>
		<path fill="#451D1C" d="M724.828,432.198c47.809-2.407,101.007,10.934,101.007,10.934l1.609,31.959
			c-15.583,3.455-16.441,25.527-23.194,47.895c-6.752,22.368-13.253,36.713-32.531,45.027
			c-19.277,8.312-98.977,16.333-126.278-4.321c-27.304-20.652-34.059-69.614-38.77-78.816c-3.86-7.542-12.777-6.019-12.777-6.019
			l-1.04-20.653C619.084,457.55,675.509,430.677,724.828,432.198z M632.798,534.291c5.12,10.422,15.562,35.262,55.58,34.581
			c40.018-0.681,83.274-2.19,96.676-22.892c13.404-20.7,22.224-67.202,19.856-75.094c-2.367-7.891-3.929-25.835-38.873-28.749
			c-34.945-2.912-51.284-1.422-51.284-1.422c-26.13,2.651-74.667,11.545-91.891,26.656
			C608.233,476.786,627.675,523.869,632.798,534.291z"/>
		<polygon fill="#451D1C" points="579.161,457.061 602.811,457.061 600,478.856 579.161,478.425 		"/>
	</g>
</g>
<g id="right_hair">
	<path fill="#711313" d="M413.671,229.232c-34.404-19.489-11.469-117.175,134.338-97.961
		c145.808,19.215,188.402,48.041,267.039,161.745c78.638,113.704,47.51,129.214,44.234,209.539
		c-3.277,80.325,31.127,101.144,45.871,120.362c14.744,19.217,16.383,54.449,0,97.689c-16.383,43.239,11.467,86.479,31.126,140.929
		c19.66,54.449,37.681,52.851,0,196.98C933.006,1112.963,979.89,1208,979.89,1208L758,1200c0,0-70.735-127.074-19.95-171.915
		c50.786-44.841,45.873-75.271,1.639-166.553c-22.539-46.512-15.725-167.656,21.454-260.005
		C798.321,509.18,792,434.223,731.497,352.268c-68.809-91.284-96.724-134.523-141.744-107.298
		C544.734,272.196,413.671,229.232,413.671,229.232z"/>
</g>
<g id="background" display="none">
	<circle display="inline" fill="#E4C7C3" cx="600" cy="600" r="600"/>
</g>
</svg>
