<?xml version="1.0" encoding="utf-8"?>
<!-- Generator: Adobe Illustrator 15.1.0, SVG Export Plug-In . SVG Version: 6.00 Build 0)  -->
<!DOCTYPE svg PUBLIC "-//W3C//DTD SVG 1.1//EN" "http://www.w3.org/Graphics/SVG/1.1/DTD/svg11.dtd">
<svg version="1.1" id="Layer_1" xmlns="http://www.w3.org/2000/svg" xmlns:xlink="http://www.w3.org/1999/xlink" x="0px" y="0px"
	 width="512px" height="512px" viewBox="0 0 512 512" enable-background="new 0 0 512 512" xml:space="preserve">
<path fill="#404040" d="M32,448h96V160H32V448z M369.2,160c-44.9,0-75.101,23.3-87.4,45.4h-1.3V160H192v288h92.3V309
	c0-36.6,7.3-72.1,55.4-72.1c47.398,0,48,41.9,48,74.5V448H480V293.9C480,218.2,462.7,160,369.2,160z M80,32c-26.5,0-48,21.5-48,48
	s21.5,48,48,48s48-21.5,48-48S106.5,32,80,32z"/>
</svg>
