<?xml version="1.0" encoding="utf-8"?>
<!-- Generator: Adobe Illustrator 15.1.0, SVG Export Plug-In . SVG Version: 6.00 Build 0)  -->
<!DOCTYPE svg PUBLIC "-//W3C//DTD SVG 1.1//EN" "http://www.w3.org/Graphics/SVG/1.1/DTD/svg11.dtd">
<svg version="1.1" id="Layer_1" xmlns="http://www.w3.org/2000/svg" xmlns:xlink="http://www.w3.org/1999/xlink" x="0px" y="0px"
	 width="1061.056px" height="1081.5px" viewBox="76.5 118.5 1061.056 1081.5" enable-background="new 76.5 118.5 1061.056 1081.5"
	 xml:space="preserve">
<g>
	<g id="epaules">
		<path fill="#DF4943" d="M492.578,795.854c0,0-326.331,96.146-374.127,156.146c-47.796,60-30.59,276-30.59,276H1126
			c0,0,26-175,0-254s-30.59-102.904-99.417-133.452C957.757,810,775.441,817.5,721.642,778c-53.799-39.5-218.906,8-218.906,8"/>
		<path fill="#FFFFFF" d="M368,828c-25.512,67.344-36,200-23,262s3,131,0,148s523,0,523,0s-107.91-421-78.955-468
			S378.612,799.986,368,828z"/>
	</g>
	<g id="cou">
		<path fill="#D2825F" d="M399.616,834.82c0,0-19.616,189.18,24.384,245.18s226,156,324,12s27.395-352,27.395-352h-74.075L474,778
			L399.616,834.82z"/>
	</g>
	<g id="let_hair">
		<path fill="#711313" d="M434.778,222.473c-63.319,6.131-127.404,40.629-120.284,189.122C316.275,503.09,288,486.717,288,576.758
			C348.667,686,263.022,776.077,325.251,825.574C387.48,875.071,474,786,474,786V222.473H434.778z"/>
	</g>
	<g id="face">
		<path fill="#EC9572" d="M463,232c-46.87,16.162-66,72-71,155s-19,141-6,195s15,50,15,85s35,91,73,119s55,74,113,73s87-54,116-81
			c0,0,62-49,78-127c5-39,2-87,8-135c1-29-15-70-18-137s-57-138-86-147s-82-15-111,0S521,212,463,232z"/>
	</g>
	<g id="sourcils">
		<path fill="#914940" d="M448,397.333c23.413,0.541,67.299,20,77.316,20.667c10.017,0.667,11.351,22.667-29.983,8
			s-59-8.667-59-8.667s-29.104,10.826-40.771,25.982C398.667,422,439.137,397.129,448,397.333z"/>
		<path fill="#914940" d="M712.401,389.109c-24.986,4.312-69.074,30.634-79.7,32.91c-10.625,2.275-8.774,24.245,33.295,3.073
			c42.066-21.171,61.876-18.088,61.876-18.088s32.773,6.01,47.521,19.115C768.896,405.542,721.86,387.478,712.401,389.109z"/>
	</g>
	<g id="levres">
		<path fill="#D35F6D" d="M592.854,668.5C613.5,665,631.5,664,676,671c15,3,15,3,15,3c0,17.5-44.28,64.5-44.28,64.5
			s-25.013,22-53.866,22c-28.853,0-55.354-14.5-70.354-29S490,681.581,490,681.581c14-2.081,31-14.997,60.5-15.789
			S592.854,668.5,592.854,668.5z"/>
	</g>
	<g id="fond_x5F_bouche">
		<path fill="#6F1625" d="M490.175,681.554c3.024,13.16,45.983,46.946,100.079,46.946S687.321,681.344,691,674
			c-10.292-1.433-53.225,17.042-100.264,18C541.8,692.997,497.28,681.021,490.175,681.554z"/>
	</g>
	<g id="dents">
		<path fill="#FFFFFF" d="M514.667,686c0,0,0.333,17.668,4.333,19.334c4-2,6.667-2.667,6.667-2.667s6,10.667,8.667,11.667
			s6.667-2.333,9.667-3c0,0,1.333,5,5.333,6.333S555.333,719,560,716c0.333,0.334,2.333,6.668,8.667,8.334s17.667,4.334,22.333,0
			c5,3.333,25-1,25-1s3.333-1.334,5-8.334c0,0,12.999,7.352,18.333-8.657c0,0,5,12.991,11.667-4.009c0,0,3.999,4.332,8.333-16.334
			c0,0-2.666,3.001-4.666,2.334S641.999,689,639.333,695c-1.666-5.666-16-1.666-18,4.667c-0.333-4.667-9.667-8.333-16-7.333
			s-12.666,6.667-14,12c-1.667-4.334-8.667-11-18-10s-11.667,5-12.667,10c-1-5.667-14-17.334-18.333-7.667c-0.333-4-16-8.667-17-4
			C524,688.667,514.667,686,514.667,686z"/>
	</g>
	<g id="lunettes">
		<g>
			<path fill="#885932" d="M371.333,480.667c1.688-6.757,2.429-20.646,23.905-27.612c-0.042-3.225-0.102-6.442-0.164-9.658
				C368.531,448.041,348.667,454,348.667,454v32c16,2.667,18,24.667,26,46.667c5.062,13.917,9.858,24.628,17.76,32.479
				c0.286-4.52,0.558-9.044,0.802-13.579C379.604,530.282,369.431,488.279,371.333,480.667z"/>
			<path fill="#451D1C" d="M450.667,438c-18.967,0-38.641,2.43-55.592,5.396c0.063,3.216,0.122,6.434,0.164,9.658
				c3.952-1.281,8.604-2.33,14.095-3.055c35.333-4.667,52-4,52-4c26.667,1.333,76.404,7.775,94.667,22
				c15.333,8.667-2,56.667-6.667,67.333s-14,36-54.667,37.333s-84.667,2-99.333-18c-0.71-0.969-1.411-2.016-2.104-3.1
				c-0.245,4.535-0.517,9.06-0.803,13.578c4.59,4.562,10.225,8.159,17.573,10.854c20,7.333,101.333,11.333,128-10.667
				s31.49-71.057,35.333-80.667c3-7.5,12.667-6.101,12.667-6.101v-21.233C559.333,458,500.667,434,450.667,438z"/>
			<path fill="#451D1C" d="M724.828,432.198c47.809-2.407,101.007,10.934,101.007,10.934l1.609,31.959
				c-15.583,3.455-16.441,25.527-23.194,47.896c-6.752,22.367-13.253,36.713-32.531,45.026
				c-19.276,8.313-98.977,16.333-126.277-4.32c-27.305-20.652-34.06-69.614-38.771-78.816c-3.86-7.542-12.777-6.019-12.777-6.019
				l-1.04-20.653C619.084,457.55,675.509,430.677,724.828,432.198z M632.798,534.291c5.12,10.422,15.563,35.262,55.58,34.581
				c40.019-0.681,83.274-2.19,96.676-22.892c13.404-20.7,22.225-67.202,19.856-75.095c-2.367-7.891-3.929-25.835-38.873-28.749
				c-34.945-2.912-51.284-1.422-51.284-1.422c-26.13,2.651-74.667,11.545-91.891,26.656
				C608.233,476.786,627.675,523.869,632.798,534.291z"/>
			<polygon fill="#451D1C" points="579.161,457.061 602.811,457.061 600,478.856 579.161,478.425 			"/>
		</g>
	</g>
	<g id="right_hair">
		<path fill="#711313" d="M413.671,229.232c-34.404-19.489-11.469-117.175,134.338-97.961
			c145.809,19.215,188.402,48.041,267.039,161.745c78.638,113.704,47.51,129.214,44.234,209.539
			c-3.277,80.325,31.127,101.145,45.871,120.362c14.743,19.217,16.383,54.449,0,97.689c-16.384,43.238,11.467,86.479,31.126,140.929
			c19.66,54.449,37.681,52.851,0,196.979C933.006,1112.963,979.89,1208,979.89,1208L758,1200c0,0-70.735-127.074-19.95-171.915
			c50.786-44.841,45.873-75.271,1.64-166.553c-22.539-46.513-15.726-167.656,21.453-260.005
			C798.321,509.18,792,434.223,731.497,352.268c-68.81-91.284-96.724-134.523-141.744-107.298
			C544.734,272.196,413.671,229.232,413.671,229.232z"/>
	</g>
</g>
<g id="background" display="none">
	<circle display="inline" fill="#E4C7C3" cx="600" cy="600" r="600"/>
</g>
<rect x="3.705" y="0" fill="none" width="1200" height="1200"/>
</svg>
